<mxfile host="app.diagrams.net" modified="2024-05-03T16:26:26.926Z" agent="Mozilla/5.0 (Windows NT 10.0; Win64; x64) AppleWebKit/537.36 (KHTML, like Gecko) Chrome/124.0.0.0 Safari/537.36" etag="eGqHXRiFNprKY2IVZr9z" version="24.3.1" type="github">
  <diagram name="PÃ¡gina-1" id="WY4z6POpGyLfs5gdnEFu">
    <mxGraphModel dx="1393" dy="750" grid="1" gridSize="10" guides="0" tooltips="1" connect="1" arrows="1" fold="1" page="1" pageScale="1" pageWidth="827" pageHeight="1169" background="none" math="0" shadow="0">
      <root>
        <mxCell id="0" />
        <mxCell id="1" parent="0" />
        <mxCell id="dywrAjBWSmj7pD-ek3sx-2" style="edgeStyle=orthogonalEdgeStyle;rounded=1;orthogonalLoop=1;jettySize=auto;html=1;endArrow=none;endFill=0;" edge="1" parent="1" source="dywrAjBWSmj7pD-ek3sx-118" target="dywrAjBWSmj7pD-ek3sx-94">
          <mxGeometry relative="1" as="geometry">
            <mxPoint x="855" y="663" as="targetPoint" />
            <Array as="points">
              <mxPoint x="855" y="510" />
            </Array>
          </mxGeometry>
        </mxCell>
        <mxCell id="dywrAjBWSmj7pD-ek3sx-3" style="edgeStyle=orthogonalEdgeStyle;rounded=1;orthogonalLoop=1;jettySize=auto;html=1;strokeColor=default;align=center;verticalAlign=middle;fontFamily=Helvetica;fontSize=11;fontColor=default;labelBackgroundColor=default;endArrow=none;endFill=0;" edge="1" parent="1" source="dywrAjBWSmj7pD-ek3sx-118" target="dywrAjBWSmj7pD-ek3sx-78">
          <mxGeometry relative="1" as="geometry">
            <mxPoint x="1139.04" y="663" as="targetPoint" />
            <Array as="points">
              <mxPoint x="1139" y="510" />
            </Array>
          </mxGeometry>
        </mxCell>
        <mxCell id="dywrAjBWSmj7pD-ek3sx-117" style="edgeStyle=orthogonalEdgeStyle;rounded=1;orthogonalLoop=1;jettySize=auto;html=1;strokeColor=default;align=center;verticalAlign=middle;fontFamily=Helvetica;fontSize=11;fontColor=default;fontStyle=1;labelBackgroundColor=none;endArrow=none;endFill=0;" edge="1" parent="1" source="dywrAjBWSmj7pD-ek3sx-78" target="dywrAjBWSmj7pD-ek3sx-101">
          <mxGeometry relative="1" as="geometry">
            <Array as="points">
              <mxPoint x="1140" y="887" />
            </Array>
          </mxGeometry>
        </mxCell>
        <mxCell id="dywrAjBWSmj7pD-ek3sx-160" style="edgeStyle=orthogonalEdgeStyle;rounded=1;orthogonalLoop=1;jettySize=auto;html=1;strokeColor=default;align=center;verticalAlign=middle;fontFamily=Helvetica;fontSize=11;fontColor=default;fontStyle=1;labelBackgroundColor=none;endArrow=none;endFill=0;" edge="1" parent="1" source="dywrAjBWSmj7pD-ek3sx-78" target="dywrAjBWSmj7pD-ek3sx-144">
          <mxGeometry relative="1" as="geometry" />
        </mxCell>
        <mxCell id="dywrAjBWSmj7pD-ek3sx-78" value="&lt;font color=&quot;#000000&quot;&gt;professores&lt;/font&gt;" style="shape=table;startSize=30;container=1;collapsible=1;childLayout=tableLayout;fixedRows=1;rowLines=0;fontStyle=1;align=center;resizeLast=1;html=1;rounded=1;fontFamily=Helvetica;fontSize=11;labelBackgroundColor=none;perimeterSpacing=0;shadow=0;swimlaneLine=1;swimlaneFillColor=default;fillColor=#1ba1e2;strokeColor=#006EAF;fontColor=#ffffff;" vertex="1" parent="1">
          <mxGeometry x="1050" y="663" width="180" height="93" as="geometry" />
        </mxCell>
        <mxCell id="dywrAjBWSmj7pD-ek3sx-79" value="" style="shape=tableRow;horizontal=0;startSize=0;swimlaneHead=0;swimlaneBody=0;fillColor=none;collapsible=0;dropTarget=0;points=[[0,0.5],[1,0.5]];portConstraint=eastwest;top=0;left=0;right=0;bottom=1;rounded=1;fontFamily=Helvetica;fontSize=11;fontColor=default;labelBackgroundColor=default;" vertex="1" parent="dywrAjBWSmj7pD-ek3sx-78">
          <mxGeometry y="30" width="180" height="33" as="geometry" />
        </mxCell>
        <mxCell id="dywrAjBWSmj7pD-ek3sx-80" value="PK, FK" style="shape=partialRectangle;connectable=0;fillColor=none;top=0;left=0;bottom=0;right=0;fontStyle=1;overflow=hidden;whiteSpace=wrap;html=1;rounded=1;fontFamily=Helvetica;fontSize=11;fontColor=default;labelBackgroundColor=default;" vertex="1" parent="dywrAjBWSmj7pD-ek3sx-79">
          <mxGeometry width="50" height="33" as="geometry">
            <mxRectangle width="50" height="33" as="alternateBounds" />
          </mxGeometry>
        </mxCell>
        <mxCell id="dywrAjBWSmj7pD-ek3sx-81" value="&lt;span style=&quot;font-size: 12px; background-color: rgb(251, 251, 251);&quot;&gt;matricula INT&lt;/span&gt;" style="shape=partialRectangle;connectable=0;fillColor=none;top=0;left=0;bottom=0;right=0;align=left;spacingLeft=6;fontStyle=5;overflow=hidden;whiteSpace=wrap;html=1;rounded=1;fontFamily=Helvetica;fontSize=11;fontColor=default;labelBackgroundColor=default;" vertex="1" parent="dywrAjBWSmj7pD-ek3sx-79">
          <mxGeometry x="50" width="130" height="33" as="geometry">
            <mxRectangle width="130" height="33" as="alternateBounds" />
          </mxGeometry>
        </mxCell>
        <mxCell id="dywrAjBWSmj7pD-ek3sx-88" value="" style="shape=tableRow;horizontal=0;startSize=0;swimlaneHead=0;swimlaneBody=0;fillColor=none;collapsible=0;dropTarget=0;points=[[0,0.5],[1,0.5]];portConstraint=eastwest;top=0;left=0;right=0;bottom=0;rounded=1;fontFamily=Helvetica;fontSize=11;fontColor=default;labelBackgroundColor=default;" vertex="1" parent="dywrAjBWSmj7pD-ek3sx-78">
          <mxGeometry y="63" width="180" height="30" as="geometry" />
        </mxCell>
        <mxCell id="dywrAjBWSmj7pD-ek3sx-89" value="" style="shape=partialRectangle;connectable=0;fillColor=none;top=0;left=0;bottom=0;right=0;editable=1;overflow=hidden;whiteSpace=wrap;html=1;rounded=1;fontFamily=Helvetica;fontSize=11;fontColor=default;labelBackgroundColor=default;" vertex="1" parent="dywrAjBWSmj7pD-ek3sx-88">
          <mxGeometry width="50" height="30" as="geometry">
            <mxRectangle width="50" height="30" as="alternateBounds" />
          </mxGeometry>
        </mxCell>
        <mxCell id="dywrAjBWSmj7pD-ek3sx-90" value="formacao VARCHAR" style="shape=partialRectangle;connectable=0;fillColor=none;top=0;left=0;bottom=0;right=0;align=left;spacingLeft=6;overflow=hidden;whiteSpace=wrap;html=1;rounded=1;fontFamily=Helvetica;fontSize=11;fontColor=default;labelBackgroundColor=default;" vertex="1" parent="dywrAjBWSmj7pD-ek3sx-88">
          <mxGeometry x="50" width="130" height="30" as="geometry">
            <mxRectangle width="130" height="30" as="alternateBounds" />
          </mxGeometry>
        </mxCell>
        <mxCell id="dywrAjBWSmj7pD-ek3sx-116" style="edgeStyle=orthogonalEdgeStyle;rounded=1;orthogonalLoop=1;jettySize=auto;html=1;strokeColor=default;align=center;verticalAlign=middle;fontFamily=Helvetica;fontSize=11;fontColor=default;fontStyle=1;labelBackgroundColor=none;endArrow=none;endFill=0;" edge="1" parent="1" source="dywrAjBWSmj7pD-ek3sx-94" target="dywrAjBWSmj7pD-ek3sx-101">
          <mxGeometry relative="1" as="geometry">
            <Array as="points">
              <mxPoint x="850" y="887" />
            </Array>
          </mxGeometry>
        </mxCell>
        <mxCell id="dywrAjBWSmj7pD-ek3sx-94" value="&lt;font color=&quot;#000000&quot;&gt;funcionarios&lt;/font&gt;" style="shape=table;startSize=30;container=1;collapsible=1;childLayout=tableLayout;fixedRows=1;rowLines=0;fontStyle=1;align=center;resizeLast=1;html=1;rounded=1;fontFamily=Helvetica;fontSize=11;labelBackgroundColor=none;perimeterSpacing=0;shadow=0;swimlaneLine=1;swimlaneFillColor=default;fillColor=#1ba1e2;strokeColor=#006EAF;fontColor=#ffffff;" vertex="1" parent="1">
          <mxGeometry x="760" y="663" width="190" height="93" as="geometry" />
        </mxCell>
        <mxCell id="dywrAjBWSmj7pD-ek3sx-95" value="" style="shape=tableRow;horizontal=0;startSize=0;swimlaneHead=0;swimlaneBody=0;fillColor=none;collapsible=0;dropTarget=0;points=[[0,0.5],[1,0.5]];portConstraint=eastwest;top=0;left=0;right=0;bottom=1;rounded=1;fontFamily=Helvetica;fontSize=11;fontColor=default;labelBackgroundColor=default;" vertex="1" parent="dywrAjBWSmj7pD-ek3sx-94">
          <mxGeometry y="30" width="190" height="33" as="geometry" />
        </mxCell>
        <mxCell id="dywrAjBWSmj7pD-ek3sx-96" value="PK, FK" style="shape=partialRectangle;connectable=0;fillColor=none;top=0;left=0;bottom=0;right=0;fontStyle=1;overflow=hidden;whiteSpace=wrap;html=1;rounded=1;fontFamily=Helvetica;fontSize=11;fontColor=default;labelBackgroundColor=default;" vertex="1" parent="dywrAjBWSmj7pD-ek3sx-95">
          <mxGeometry width="50" height="33" as="geometry">
            <mxRectangle width="50" height="33" as="alternateBounds" />
          </mxGeometry>
        </mxCell>
        <mxCell id="dywrAjBWSmj7pD-ek3sx-97" value="&lt;span style=&quot;font-size: 12px; background-color: rgb(251, 251, 251);&quot;&gt;matricula INT&lt;/span&gt;" style="shape=partialRectangle;connectable=0;fillColor=none;top=0;left=0;bottom=0;right=0;align=left;spacingLeft=6;fontStyle=5;overflow=hidden;whiteSpace=wrap;html=1;rounded=1;fontFamily=Helvetica;fontSize=11;fontColor=default;labelBackgroundColor=default;" vertex="1" parent="dywrAjBWSmj7pD-ek3sx-95">
          <mxGeometry x="50" width="140" height="33" as="geometry">
            <mxRectangle width="140" height="33" as="alternateBounds" />
          </mxGeometry>
        </mxCell>
        <mxCell id="dywrAjBWSmj7pD-ek3sx-98" value="" style="shape=tableRow;horizontal=0;startSize=0;swimlaneHead=0;swimlaneBody=0;fillColor=none;collapsible=0;dropTarget=0;points=[[0,0.5],[1,0.5]];portConstraint=eastwest;top=0;left=0;right=0;bottom=0;rounded=1;fontFamily=Helvetica;fontSize=11;fontColor=default;labelBackgroundColor=default;" vertex="1" parent="dywrAjBWSmj7pD-ek3sx-94">
          <mxGeometry y="63" width="190" height="30" as="geometry" />
        </mxCell>
        <mxCell id="dywrAjBWSmj7pD-ek3sx-99" value="" style="shape=partialRectangle;connectable=0;fillColor=none;top=0;left=0;bottom=0;right=0;editable=1;overflow=hidden;whiteSpace=wrap;html=1;rounded=1;fontFamily=Helvetica;fontSize=11;fontColor=default;labelBackgroundColor=default;" vertex="1" parent="dywrAjBWSmj7pD-ek3sx-98">
          <mxGeometry width="50" height="30" as="geometry">
            <mxRectangle width="50" height="30" as="alternateBounds" />
          </mxGeometry>
        </mxCell>
        <mxCell id="dywrAjBWSmj7pD-ek3sx-100" value="funcao VARCHAR" style="shape=partialRectangle;connectable=0;fillColor=none;top=0;left=0;bottom=0;right=0;align=left;spacingLeft=6;overflow=hidden;whiteSpace=wrap;html=1;rounded=1;fontFamily=Helvetica;fontSize=11;fontColor=default;labelBackgroundColor=default;" vertex="1" parent="dywrAjBWSmj7pD-ek3sx-98">
          <mxGeometry x="50" width="140" height="30" as="geometry">
            <mxRectangle width="140" height="30" as="alternateBounds" />
          </mxGeometry>
        </mxCell>
        <mxCell id="dywrAjBWSmj7pD-ek3sx-101" value="&lt;font color=&quot;#000000&quot;&gt;dependentes&lt;/font&gt;" style="shape=table;startSize=30;container=1;collapsible=1;childLayout=tableLayout;fixedRows=1;rowLines=0;fontStyle=1;align=center;resizeLast=1;html=1;rounded=1;fontFamily=Helvetica;fontSize=11;labelBackgroundColor=none;perimeterSpacing=0;shadow=0;swimlaneLine=1;swimlaneFillColor=default;fillColor=#1ba1e2;strokeColor=#006EAF;fontColor=#ffffff;" vertex="1" parent="1">
          <mxGeometry x="892" y="810" width="210" height="153" as="geometry" />
        </mxCell>
        <mxCell id="dywrAjBWSmj7pD-ek3sx-102" value="" style="shape=tableRow;horizontal=0;startSize=0;swimlaneHead=0;swimlaneBody=0;fillColor=none;collapsible=0;dropTarget=0;points=[[0,0.5],[1,0.5]];portConstraint=eastwest;top=0;left=0;right=0;bottom=1;rounded=1;fontFamily=Helvetica;fontSize=11;fontColor=default;labelBackgroundColor=default;" vertex="1" parent="dywrAjBWSmj7pD-ek3sx-101">
          <mxGeometry y="30" width="210" height="33" as="geometry" />
        </mxCell>
        <mxCell id="dywrAjBWSmj7pD-ek3sx-103" value="PK" style="shape=partialRectangle;connectable=0;fillColor=none;top=0;left=0;bottom=0;right=0;fontStyle=1;overflow=hidden;whiteSpace=wrap;html=1;rounded=1;fontFamily=Helvetica;fontSize=11;fontColor=default;labelBackgroundColor=default;" vertex="1" parent="dywrAjBWSmj7pD-ek3sx-102">
          <mxGeometry width="38" height="33" as="geometry">
            <mxRectangle width="38" height="33" as="alternateBounds" />
          </mxGeometry>
        </mxCell>
        <mxCell id="dywrAjBWSmj7pD-ek3sx-104" value="&lt;span style=&quot;font-size: 12px; background-color: rgb(251, 251, 251);&quot;&gt;id_dependente SERIAL&lt;/span&gt;" style="shape=partialRectangle;connectable=0;fillColor=none;top=0;left=0;bottom=0;right=0;align=left;spacingLeft=6;fontStyle=5;overflow=hidden;whiteSpace=wrap;html=1;rounded=1;fontFamily=Helvetica;fontSize=11;fontColor=default;labelBackgroundColor=default;" vertex="1" parent="dywrAjBWSmj7pD-ek3sx-102">
          <mxGeometry x="38" width="172" height="33" as="geometry">
            <mxRectangle width="172" height="33" as="alternateBounds" />
          </mxGeometry>
        </mxCell>
        <mxCell id="dywrAjBWSmj7pD-ek3sx-105" value="" style="shape=tableRow;horizontal=0;startSize=0;swimlaneHead=0;swimlaneBody=0;fillColor=none;collapsible=0;dropTarget=0;points=[[0,0.5],[1,0.5]];portConstraint=eastwest;top=0;left=0;right=0;bottom=0;rounded=1;fontFamily=Helvetica;fontSize=11;fontColor=default;labelBackgroundColor=default;" vertex="1" parent="dywrAjBWSmj7pD-ek3sx-101">
          <mxGeometry y="63" width="210" height="30" as="geometry" />
        </mxCell>
        <mxCell id="dywrAjBWSmj7pD-ek3sx-106" value="" style="shape=partialRectangle;connectable=0;fillColor=none;top=0;left=0;bottom=0;right=0;editable=1;overflow=hidden;whiteSpace=wrap;html=1;rounded=1;fontFamily=Helvetica;fontSize=11;fontColor=default;labelBackgroundColor=default;" vertex="1" parent="dywrAjBWSmj7pD-ek3sx-105">
          <mxGeometry width="38" height="30" as="geometry">
            <mxRectangle width="38" height="30" as="alternateBounds" />
          </mxGeometry>
        </mxCell>
        <mxCell id="dywrAjBWSmj7pD-ek3sx-107" value="&lt;span style=&quot;font-size: 12px;&quot;&gt;nome VARCHAR&lt;/span&gt;" style="shape=partialRectangle;connectable=0;fillColor=none;top=0;left=0;bottom=0;right=0;align=left;spacingLeft=6;overflow=hidden;whiteSpace=wrap;html=1;rounded=1;fontFamily=Helvetica;fontSize=11;fontColor=default;labelBackgroundColor=default;" vertex="1" parent="dywrAjBWSmj7pD-ek3sx-105">
          <mxGeometry x="38" width="172" height="30" as="geometry">
            <mxRectangle width="172" height="30" as="alternateBounds" />
          </mxGeometry>
        </mxCell>
        <mxCell id="dywrAjBWSmj7pD-ek3sx-110" value="" style="shape=tableRow;horizontal=0;startSize=0;swimlaneHead=0;swimlaneBody=0;fillColor=none;collapsible=0;dropTarget=0;points=[[0,0.5],[1,0.5]];portConstraint=eastwest;top=0;left=0;right=0;bottom=0;rounded=1;fontFamily=Helvetica;fontSize=11;fontColor=default;labelBackgroundColor=default;" vertex="1" parent="dywrAjBWSmj7pD-ek3sx-101">
          <mxGeometry y="93" width="210" height="30" as="geometry" />
        </mxCell>
        <mxCell id="dywrAjBWSmj7pD-ek3sx-111" value="" style="shape=partialRectangle;connectable=0;fillColor=none;top=0;left=0;bottom=0;right=0;editable=1;overflow=hidden;whiteSpace=wrap;html=1;rounded=1;fontFamily=Helvetica;fontSize=11;fontColor=default;labelBackgroundColor=default;" vertex="1" parent="dywrAjBWSmj7pD-ek3sx-110">
          <mxGeometry width="38" height="30" as="geometry">
            <mxRectangle width="38" height="30" as="alternateBounds" />
          </mxGeometry>
        </mxCell>
        <mxCell id="dywrAjBWSmj7pD-ek3sx-112" value="&lt;span style=&quot;font-size: 12px;&quot;&gt;parentesco VARCHAR&lt;/span&gt;" style="shape=partialRectangle;connectable=0;fillColor=none;top=0;left=0;bottom=0;right=0;align=left;spacingLeft=6;overflow=hidden;whiteSpace=wrap;html=1;rounded=1;fontFamily=Helvetica;fontSize=11;fontColor=default;labelBackgroundColor=default;" vertex="1" parent="dywrAjBWSmj7pD-ek3sx-110">
          <mxGeometry x="38" width="172" height="30" as="geometry">
            <mxRectangle width="172" height="30" as="alternateBounds" />
          </mxGeometry>
        </mxCell>
        <mxCell id="dywrAjBWSmj7pD-ek3sx-113" value="" style="shape=tableRow;horizontal=0;startSize=0;swimlaneHead=0;swimlaneBody=0;fillColor=none;collapsible=0;dropTarget=0;points=[[0,0.5],[1,0.5]];portConstraint=eastwest;top=0;left=0;right=0;bottom=0;rounded=1;fontFamily=Helvetica;fontSize=11;fontColor=default;labelBackgroundColor=default;" vertex="1" parent="dywrAjBWSmj7pD-ek3sx-101">
          <mxGeometry y="123" width="210" height="30" as="geometry" />
        </mxCell>
        <mxCell id="dywrAjBWSmj7pD-ek3sx-114" value="FK" style="shape=partialRectangle;connectable=0;fillColor=none;top=0;left=0;bottom=0;right=0;editable=1;overflow=hidden;whiteSpace=wrap;html=1;rounded=1;fontFamily=Helvetica;fontSize=11;fontColor=default;labelBackgroundColor=default;" vertex="1" parent="dywrAjBWSmj7pD-ek3sx-113">
          <mxGeometry width="38" height="30" as="geometry">
            <mxRectangle width="38" height="30" as="alternateBounds" />
          </mxGeometry>
        </mxCell>
        <mxCell id="dywrAjBWSmj7pD-ek3sx-115" value="&lt;span style=&quot;font-size: 12px;&quot;&gt;matricula_contratado INT&lt;/span&gt;" style="shape=partialRectangle;connectable=0;fillColor=none;top=0;left=0;bottom=0;right=0;align=left;spacingLeft=6;overflow=hidden;whiteSpace=wrap;html=1;rounded=1;fontFamily=Helvetica;fontSize=11;fontColor=default;labelBackgroundColor=default;" vertex="1" parent="dywrAjBWSmj7pD-ek3sx-113">
          <mxGeometry x="38" width="172" height="30" as="geometry">
            <mxRectangle width="172" height="30" as="alternateBounds" />
          </mxGeometry>
        </mxCell>
        <mxCell id="dywrAjBWSmj7pD-ek3sx-118" value="&lt;font color=&quot;#000000&quot;&gt;contratados&lt;/font&gt;" style="shape=table;startSize=30;container=1;collapsible=1;childLayout=tableLayout;fixedRows=1;rowLines=0;fontStyle=1;align=center;resizeLast=1;html=1;rounded=1;fontFamily=Helvetica;fontSize=11;labelBackgroundColor=none;perimeterSpacing=0;shadow=0;swimlaneLine=1;swimlaneFillColor=default;fillColor=#1ba1e2;strokeColor=#006EAF;fontColor=#ffffff;" vertex="1" parent="1">
          <mxGeometry x="889" y="430" width="210" height="153" as="geometry" />
        </mxCell>
        <mxCell id="dywrAjBWSmj7pD-ek3sx-119" value="" style="shape=tableRow;horizontal=0;startSize=0;swimlaneHead=0;swimlaneBody=0;fillColor=none;collapsible=0;dropTarget=0;points=[[0,0.5],[1,0.5]];portConstraint=eastwest;top=0;left=0;right=0;bottom=1;rounded=1;fontFamily=Helvetica;fontSize=11;fontColor=default;labelBackgroundColor=default;" vertex="1" parent="dywrAjBWSmj7pD-ek3sx-118">
          <mxGeometry y="30" width="210" height="33" as="geometry" />
        </mxCell>
        <mxCell id="dywrAjBWSmj7pD-ek3sx-120" value="PK, FK" style="shape=partialRectangle;connectable=0;fillColor=none;top=0;left=0;bottom=0;right=0;fontStyle=1;overflow=hidden;whiteSpace=wrap;html=1;rounded=1;fontFamily=Helvetica;fontSize=11;fontColor=default;labelBackgroundColor=default;" vertex="1" parent="dywrAjBWSmj7pD-ek3sx-119">
          <mxGeometry width="48.00000000000023" height="33" as="geometry">
            <mxRectangle width="48.00000000000023" height="33" as="alternateBounds" />
          </mxGeometry>
        </mxCell>
        <mxCell id="dywrAjBWSmj7pD-ek3sx-121" value="&lt;span style=&quot;font-size: 12px; background-color: rgb(251, 251, 251);&quot;&gt;matricula INT&lt;/span&gt;" style="shape=partialRectangle;connectable=0;fillColor=none;top=0;left=0;bottom=0;right=0;align=left;spacingLeft=6;fontStyle=5;overflow=hidden;whiteSpace=wrap;html=1;rounded=1;fontFamily=Helvetica;fontSize=11;fontColor=default;labelBackgroundColor=default;" vertex="1" parent="dywrAjBWSmj7pD-ek3sx-119">
          <mxGeometry x="48.00000000000023" width="161.99999999999977" height="33" as="geometry">
            <mxRectangle width="161.99999999999977" height="33" as="alternateBounds" />
          </mxGeometry>
        </mxCell>
        <mxCell id="dywrAjBWSmj7pD-ek3sx-134" value="" style="shape=tableRow;horizontal=0;startSize=0;swimlaneHead=0;swimlaneBody=0;fillColor=none;collapsible=0;dropTarget=0;points=[[0,0.5],[1,0.5]];portConstraint=eastwest;top=0;left=0;right=0;bottom=0;rounded=1;fontFamily=Helvetica;fontSize=11;fontColor=default;labelBackgroundColor=default;" vertex="1" parent="dywrAjBWSmj7pD-ek3sx-118">
          <mxGeometry y="63" width="210" height="30" as="geometry" />
        </mxCell>
        <mxCell id="dywrAjBWSmj7pD-ek3sx-135" value="" style="shape=partialRectangle;connectable=0;fillColor=none;top=0;left=0;bottom=0;right=0;editable=1;overflow=hidden;whiteSpace=wrap;html=1;rounded=1;fontFamily=Helvetica;fontSize=11;fontColor=default;labelBackgroundColor=default;" vertex="1" parent="dywrAjBWSmj7pD-ek3sx-134">
          <mxGeometry width="48.00000000000023" height="30" as="geometry">
            <mxRectangle width="48.00000000000023" height="30" as="alternateBounds" />
          </mxGeometry>
        </mxCell>
        <mxCell id="dywrAjBWSmj7pD-ek3sx-136" value="&lt;span style=&quot;font-size: 12px; background-color: rgb(251, 251, 251);&quot;&gt;salario INT&lt;/span&gt;" style="shape=partialRectangle;connectable=0;fillColor=none;top=0;left=0;bottom=0;right=0;align=left;spacingLeft=6;overflow=hidden;whiteSpace=wrap;html=1;rounded=1;fontFamily=Helvetica;fontSize=11;fontColor=default;labelBackgroundColor=default;" vertex="1" parent="dywrAjBWSmj7pD-ek3sx-134">
          <mxGeometry x="48.00000000000023" width="161.99999999999977" height="30" as="geometry">
            <mxRectangle width="161.99999999999977" height="30" as="alternateBounds" />
          </mxGeometry>
        </mxCell>
        <mxCell id="dywrAjBWSmj7pD-ek3sx-279" value="" style="shape=tableRow;horizontal=0;startSize=0;swimlaneHead=0;swimlaneBody=0;fillColor=none;collapsible=0;dropTarget=0;points=[[0,0.5],[1,0.5]];portConstraint=eastwest;top=0;left=0;right=0;bottom=0;rounded=1;fontFamily=Helvetica;fontSize=11;fontColor=default;labelBackgroundColor=default;" vertex="1" parent="dywrAjBWSmj7pD-ek3sx-118">
          <mxGeometry y="93" width="210" height="30" as="geometry" />
        </mxCell>
        <mxCell id="dywrAjBWSmj7pD-ek3sx-280" value="" style="shape=partialRectangle;connectable=0;fillColor=none;top=0;left=0;bottom=0;right=0;editable=1;overflow=hidden;whiteSpace=wrap;html=1;rounded=1;fontFamily=Helvetica;fontSize=11;fontColor=default;labelBackgroundColor=default;" vertex="1" parent="dywrAjBWSmj7pD-ek3sx-279">
          <mxGeometry width="48.00000000000023" height="30" as="geometry">
            <mxRectangle width="48.00000000000023" height="30" as="alternateBounds" />
          </mxGeometry>
        </mxCell>
        <mxCell id="dywrAjBWSmj7pD-ek3sx-281" value="&lt;span style=&quot;font-size: 12px;&quot;&gt;data_inicio DATE&lt;/span&gt;" style="shape=partialRectangle;connectable=0;fillColor=none;top=0;left=0;bottom=0;right=0;align=left;spacingLeft=6;overflow=hidden;whiteSpace=wrap;html=1;rounded=1;fontFamily=Helvetica;fontSize=11;fontColor=default;labelBackgroundColor=default;" vertex="1" parent="dywrAjBWSmj7pD-ek3sx-279">
          <mxGeometry x="48.00000000000023" width="161.99999999999977" height="30" as="geometry">
            <mxRectangle width="161.99999999999977" height="30" as="alternateBounds" />
          </mxGeometry>
        </mxCell>
        <mxCell id="dywrAjBWSmj7pD-ek3sx-128" value="" style="shape=tableRow;horizontal=0;startSize=0;swimlaneHead=0;swimlaneBody=0;fillColor=none;collapsible=0;dropTarget=0;points=[[0,0.5],[1,0.5]];portConstraint=eastwest;top=0;left=0;right=0;bottom=0;rounded=1;fontFamily=Helvetica;fontSize=11;fontColor=default;labelBackgroundColor=default;" vertex="1" parent="dywrAjBWSmj7pD-ek3sx-118">
          <mxGeometry y="123" width="210" height="30" as="geometry" />
        </mxCell>
        <mxCell id="dywrAjBWSmj7pD-ek3sx-129" value="FK" style="shape=partialRectangle;connectable=0;fillColor=none;top=0;left=0;bottom=0;right=0;editable=1;overflow=hidden;whiteSpace=wrap;html=1;rounded=1;fontFamily=Helvetica;fontSize=11;fontColor=default;labelBackgroundColor=default;" vertex="1" parent="dywrAjBWSmj7pD-ek3sx-128">
          <mxGeometry width="48.00000000000023" height="30" as="geometry">
            <mxRectangle width="48.00000000000023" height="30" as="alternateBounds" />
          </mxGeometry>
        </mxCell>
        <mxCell id="dywrAjBWSmj7pD-ek3sx-130" value="&lt;span style=&quot;font-size: 12px;&quot;&gt;cod_unidade_academica&lt;/span&gt;" style="shape=partialRectangle;connectable=0;fillColor=none;top=0;left=0;bottom=0;right=0;align=left;spacingLeft=6;overflow=hidden;whiteSpace=wrap;html=1;rounded=1;fontFamily=Helvetica;fontSize=11;fontColor=default;labelBackgroundColor=default;" vertex="1" parent="dywrAjBWSmj7pD-ek3sx-128">
          <mxGeometry x="48.00000000000023" width="161.99999999999977" height="30" as="geometry">
            <mxRectangle width="161.99999999999977" height="30" as="alternateBounds" />
          </mxGeometry>
        </mxCell>
        <mxCell id="dywrAjBWSmj7pD-ek3sx-224" style="edgeStyle=orthogonalEdgeStyle;rounded=1;orthogonalLoop=1;jettySize=auto;html=1;strokeColor=default;align=center;verticalAlign=middle;fontFamily=Helvetica;fontSize=11;fontColor=default;fontStyle=1;labelBackgroundColor=none;endArrow=none;endFill=0;" edge="1" parent="1" source="dywrAjBWSmj7pD-ek3sx-144" target="dywrAjBWSmj7pD-ek3sx-178">
          <mxGeometry relative="1" as="geometry" />
        </mxCell>
        <mxCell id="dywrAjBWSmj7pD-ek3sx-144" value="&lt;font color=&quot;#000000&quot;&gt;professores_turmas&lt;/font&gt;" style="shape=table;startSize=30;container=1;collapsible=1;childLayout=tableLayout;fixedRows=1;rowLines=0;fontStyle=1;align=center;resizeLast=1;html=1;rounded=1;fontFamily=Helvetica;fontSize=11;labelBackgroundColor=none;perimeterSpacing=0;shadow=0;swimlaneLine=1;swimlaneFillColor=default;fillColor=#1ba1e2;strokeColor=#006EAF;fontColor=#ffffff;" vertex="1" parent="1">
          <mxGeometry x="1300" y="648" width="220" height="123" as="geometry" />
        </mxCell>
        <mxCell id="dywrAjBWSmj7pD-ek3sx-145" value="" style="shape=tableRow;horizontal=0;startSize=0;swimlaneHead=0;swimlaneBody=0;fillColor=none;collapsible=0;dropTarget=0;points=[[0,0.5],[1,0.5]];portConstraint=eastwest;top=0;left=0;right=0;bottom=1;rounded=1;fontFamily=Helvetica;fontSize=11;fontColor=default;labelBackgroundColor=default;" vertex="1" parent="dywrAjBWSmj7pD-ek3sx-144">
          <mxGeometry y="30" width="220" height="33" as="geometry" />
        </mxCell>
        <mxCell id="dywrAjBWSmj7pD-ek3sx-146" value="PK" style="shape=partialRectangle;connectable=0;fillColor=none;top=0;left=0;bottom=0;right=0;fontStyle=1;overflow=hidden;whiteSpace=wrap;html=1;rounded=1;fontFamily=Helvetica;fontSize=11;fontColor=default;labelBackgroundColor=default;" vertex="1" parent="dywrAjBWSmj7pD-ek3sx-145">
          <mxGeometry width="38" height="33" as="geometry">
            <mxRectangle width="38" height="33" as="alternateBounds" />
          </mxGeometry>
        </mxCell>
        <mxCell id="dywrAjBWSmj7pD-ek3sx-147" value="&lt;span style=&quot;font-size: 12px; background-color: rgb(251, 251, 251);&quot;&gt;id_professor_turma SERIAL&lt;/span&gt;" style="shape=partialRectangle;connectable=0;fillColor=none;top=0;left=0;bottom=0;right=0;align=left;spacingLeft=6;fontStyle=5;overflow=hidden;whiteSpace=wrap;html=1;rounded=1;fontFamily=Helvetica;fontSize=11;fontColor=default;labelBackgroundColor=default;" vertex="1" parent="dywrAjBWSmj7pD-ek3sx-145">
          <mxGeometry x="38" width="182" height="33" as="geometry">
            <mxRectangle width="182" height="33" as="alternateBounds" />
          </mxGeometry>
        </mxCell>
        <mxCell id="dywrAjBWSmj7pD-ek3sx-154" value="" style="shape=tableRow;horizontal=0;startSize=0;swimlaneHead=0;swimlaneBody=0;fillColor=none;collapsible=0;dropTarget=0;points=[[0,0.5],[1,0.5]];portConstraint=eastwest;top=0;left=0;right=0;bottom=0;rounded=1;fontFamily=Helvetica;fontSize=11;fontColor=default;labelBackgroundColor=default;" vertex="1" parent="dywrAjBWSmj7pD-ek3sx-144">
          <mxGeometry y="63" width="220" height="30" as="geometry" />
        </mxCell>
        <mxCell id="dywrAjBWSmj7pD-ek3sx-155" value="FK" style="shape=partialRectangle;connectable=0;fillColor=none;top=0;left=0;bottom=0;right=0;editable=1;overflow=hidden;whiteSpace=wrap;html=1;rounded=1;fontFamily=Helvetica;fontSize=11;fontColor=default;labelBackgroundColor=default;" vertex="1" parent="dywrAjBWSmj7pD-ek3sx-154">
          <mxGeometry width="38" height="30" as="geometry">
            <mxRectangle width="38" height="30" as="alternateBounds" />
          </mxGeometry>
        </mxCell>
        <mxCell id="dywrAjBWSmj7pD-ek3sx-156" value="&lt;span style=&quot;font-size: 12px; background-color: rgb(251, 251, 251);&quot;&gt;id_professor SERIAL&lt;/span&gt;" style="shape=partialRectangle;connectable=0;fillColor=none;top=0;left=0;bottom=0;right=0;align=left;spacingLeft=6;overflow=hidden;whiteSpace=wrap;html=1;rounded=1;fontFamily=Helvetica;fontSize=11;fontColor=default;labelBackgroundColor=default;" vertex="1" parent="dywrAjBWSmj7pD-ek3sx-154">
          <mxGeometry x="38" width="182" height="30" as="geometry">
            <mxRectangle width="182" height="30" as="alternateBounds" />
          </mxGeometry>
        </mxCell>
        <mxCell id="dywrAjBWSmj7pD-ek3sx-157" value="" style="shape=tableRow;horizontal=0;startSize=0;swimlaneHead=0;swimlaneBody=0;fillColor=none;collapsible=0;dropTarget=0;points=[[0,0.5],[1,0.5]];portConstraint=eastwest;top=0;left=0;right=0;bottom=0;rounded=1;fontFamily=Helvetica;fontSize=11;fontColor=default;labelBackgroundColor=default;" vertex="1" parent="dywrAjBWSmj7pD-ek3sx-144">
          <mxGeometry y="93" width="220" height="30" as="geometry" />
        </mxCell>
        <mxCell id="dywrAjBWSmj7pD-ek3sx-158" value="FK" style="shape=partialRectangle;connectable=0;fillColor=none;top=0;left=0;bottom=0;right=0;editable=1;overflow=hidden;whiteSpace=wrap;html=1;rounded=1;fontFamily=Helvetica;fontSize=11;fontColor=default;labelBackgroundColor=default;" vertex="1" parent="dywrAjBWSmj7pD-ek3sx-157">
          <mxGeometry width="38" height="30" as="geometry">
            <mxRectangle width="38" height="30" as="alternateBounds" />
          </mxGeometry>
        </mxCell>
        <mxCell id="dywrAjBWSmj7pD-ek3sx-159" value="&lt;span style=&quot;font-size: 12px; background-color: rgb(251, 251, 251);&quot;&gt;id_turma SERIAL&lt;/span&gt;" style="shape=partialRectangle;connectable=0;fillColor=none;top=0;left=0;bottom=0;right=0;align=left;spacingLeft=6;overflow=hidden;whiteSpace=wrap;html=1;rounded=1;fontFamily=Helvetica;fontSize=11;fontColor=default;labelBackgroundColor=default;" vertex="1" parent="dywrAjBWSmj7pD-ek3sx-157">
          <mxGeometry x="38" width="182" height="30" as="geometry">
            <mxRectangle width="182" height="30" as="alternateBounds" />
          </mxGeometry>
        </mxCell>
        <mxCell id="dywrAjBWSmj7pD-ek3sx-177" style="edgeStyle=orthogonalEdgeStyle;rounded=1;orthogonalLoop=1;jettySize=auto;html=1;strokeColor=default;align=center;verticalAlign=middle;fontFamily=Helvetica;fontSize=11;fontColor=default;fontStyle=1;labelBackgroundColor=none;endArrow=none;endFill=0;" edge="1" parent="1" source="dywrAjBWSmj7pD-ek3sx-161" target="dywrAjBWSmj7pD-ek3sx-118">
          <mxGeometry relative="1" as="geometry">
            <Array as="points">
              <mxPoint x="940" y="357" />
            </Array>
          </mxGeometry>
        </mxCell>
        <mxCell id="dywrAjBWSmj7pD-ek3sx-161" value="&lt;font color=&quot;#000000&quot;&gt;unidade_academica&lt;/font&gt;" style="shape=table;startSize=30;container=1;collapsible=1;childLayout=tableLayout;fixedRows=1;rowLines=0;fontStyle=1;align=center;resizeLast=1;html=1;rounded=1;fontFamily=Helvetica;fontSize=11;labelBackgroundColor=none;perimeterSpacing=0;shadow=0;swimlaneLine=1;swimlaneFillColor=default;fillColor=#1ba1e2;strokeColor=#006EAF;fontColor=#ffffff;" vertex="1" parent="1">
          <mxGeometry x="660" y="300" width="210" height="93" as="geometry" />
        </mxCell>
        <mxCell id="dywrAjBWSmj7pD-ek3sx-162" value="" style="shape=tableRow;horizontal=0;startSize=0;swimlaneHead=0;swimlaneBody=0;fillColor=none;collapsible=0;dropTarget=0;points=[[0,0.5],[1,0.5]];portConstraint=eastwest;top=0;left=0;right=0;bottom=1;rounded=1;fontFamily=Helvetica;fontSize=11;fontColor=default;labelBackgroundColor=default;" vertex="1" parent="dywrAjBWSmj7pD-ek3sx-161">
          <mxGeometry y="30" width="210" height="33" as="geometry" />
        </mxCell>
        <mxCell id="dywrAjBWSmj7pD-ek3sx-163" value="PK" style="shape=partialRectangle;connectable=0;fillColor=none;top=0;left=0;bottom=0;right=0;fontStyle=1;overflow=hidden;whiteSpace=wrap;html=1;rounded=1;fontFamily=Helvetica;fontSize=11;fontColor=default;labelBackgroundColor=default;" vertex="1" parent="dywrAjBWSmj7pD-ek3sx-162">
          <mxGeometry width="38" height="33" as="geometry">
            <mxRectangle width="38" height="33" as="alternateBounds" />
          </mxGeometry>
        </mxCell>
        <mxCell id="dywrAjBWSmj7pD-ek3sx-164" value="&lt;span style=&quot;font-size: 12px;&quot;&gt;cod INT&lt;/span&gt;" style="shape=partialRectangle;connectable=0;fillColor=none;top=0;left=0;bottom=0;right=0;align=left;spacingLeft=6;fontStyle=5;overflow=hidden;whiteSpace=wrap;html=1;rounded=1;fontFamily=Helvetica;fontSize=11;fontColor=default;labelBackgroundColor=default;" vertex="1" parent="dywrAjBWSmj7pD-ek3sx-162">
          <mxGeometry x="38" width="172" height="33" as="geometry">
            <mxRectangle width="172" height="33" as="alternateBounds" />
          </mxGeometry>
        </mxCell>
        <mxCell id="dywrAjBWSmj7pD-ek3sx-168" value="" style="shape=tableRow;horizontal=0;startSize=0;swimlaneHead=0;swimlaneBody=0;fillColor=none;collapsible=0;dropTarget=0;points=[[0,0.5],[1,0.5]];portConstraint=eastwest;top=0;left=0;right=0;bottom=0;rounded=1;fontFamily=Helvetica;fontSize=11;fontColor=default;labelBackgroundColor=default;" vertex="1" parent="dywrAjBWSmj7pD-ek3sx-161">
          <mxGeometry y="63" width="210" height="30" as="geometry" />
        </mxCell>
        <mxCell id="dywrAjBWSmj7pD-ek3sx-169" value="" style="shape=partialRectangle;connectable=0;fillColor=none;top=0;left=0;bottom=0;right=0;editable=1;overflow=hidden;whiteSpace=wrap;html=1;rounded=1;fontFamily=Helvetica;fontSize=11;fontColor=default;labelBackgroundColor=default;" vertex="1" parent="dywrAjBWSmj7pD-ek3sx-168">
          <mxGeometry width="38" height="30" as="geometry">
            <mxRectangle width="38" height="30" as="alternateBounds" />
          </mxGeometry>
        </mxCell>
        <mxCell id="dywrAjBWSmj7pD-ek3sx-170" value="&lt;span style=&quot;font-size: 12px;&quot;&gt;nome VARCHAR&lt;/span&gt;" style="shape=partialRectangle;connectable=0;fillColor=none;top=0;left=0;bottom=0;right=0;align=left;spacingLeft=6;overflow=hidden;whiteSpace=wrap;html=1;rounded=1;fontFamily=Helvetica;fontSize=11;fontColor=default;labelBackgroundColor=default;" vertex="1" parent="dywrAjBWSmj7pD-ek3sx-168">
          <mxGeometry x="38" width="172" height="30" as="geometry">
            <mxRectangle width="172" height="30" as="alternateBounds" />
          </mxGeometry>
        </mxCell>
        <mxCell id="dywrAjBWSmj7pD-ek3sx-245" style="edgeStyle=orthogonalEdgeStyle;rounded=1;orthogonalLoop=1;jettySize=auto;html=1;strokeColor=default;align=center;verticalAlign=middle;fontFamily=Helvetica;fontSize=11;fontColor=default;fontStyle=1;labelBackgroundColor=none;endArrow=none;endFill=0;" edge="1" parent="1" source="dywrAjBWSmj7pD-ek3sx-178" target="dywrAjBWSmj7pD-ek3sx-235">
          <mxGeometry relative="1" as="geometry" />
        </mxCell>
        <mxCell id="dywrAjBWSmj7pD-ek3sx-247" style="edgeStyle=orthogonalEdgeStyle;rounded=1;orthogonalLoop=1;jettySize=auto;html=1;strokeColor=default;align=center;verticalAlign=middle;fontFamily=Helvetica;fontSize=11;fontColor=default;fontStyle=1;labelBackgroundColor=none;endArrow=none;endFill=0;" edge="1" parent="1" source="dywrAjBWSmj7pD-ek3sx-178" target="dywrAjBWSmj7pD-ek3sx-201">
          <mxGeometry relative="1" as="geometry" />
        </mxCell>
        <mxCell id="dywrAjBWSmj7pD-ek3sx-178" value="&lt;font color=&quot;#000000&quot;&gt;turmas&lt;/font&gt;" style="shape=table;startSize=30;container=1;collapsible=1;childLayout=tableLayout;fixedRows=1;rowLines=0;fontStyle=1;align=center;resizeLast=1;html=1;rounded=1;fontFamily=Helvetica;fontSize=11;labelBackgroundColor=none;perimeterSpacing=0;shadow=0;swimlaneLine=1;swimlaneFillColor=default;fillColor=#1ba1e2;strokeColor=#006EAF;fontColor=#ffffff;verticalAlign=middle;" vertex="1" parent="1">
          <mxGeometry x="1605" y="663" width="180" height="93" as="geometry" />
        </mxCell>
        <mxCell id="dywrAjBWSmj7pD-ek3sx-179" value="" style="shape=tableRow;horizontal=0;startSize=0;swimlaneHead=0;swimlaneBody=0;fillColor=none;collapsible=0;dropTarget=0;points=[[0,0.5],[1,0.5]];portConstraint=eastwest;top=0;left=0;right=0;bottom=1;rounded=1;fontFamily=Helvetica;fontSize=11;fontColor=default;labelBackgroundColor=default;shadow=0;strokeColor=default;align=center;verticalAlign=middle;fontStyle=1;" vertex="1" parent="dywrAjBWSmj7pD-ek3sx-178">
          <mxGeometry y="30" width="180" height="33" as="geometry" />
        </mxCell>
        <mxCell id="dywrAjBWSmj7pD-ek3sx-180" value="PK" style="shape=partialRectangle;connectable=0;fillColor=none;top=0;left=0;bottom=0;right=0;fontStyle=1;overflow=hidden;whiteSpace=wrap;html=1;rounded=1;fontFamily=Helvetica;fontSize=11;fontColor=default;labelBackgroundColor=default;shadow=0;strokeColor=default;align=center;verticalAlign=middle;" vertex="1" parent="dywrAjBWSmj7pD-ek3sx-179">
          <mxGeometry width="38" height="33" as="geometry">
            <mxRectangle width="38" height="33" as="alternateBounds" />
          </mxGeometry>
        </mxCell>
        <mxCell id="dywrAjBWSmj7pD-ek3sx-181" value="&lt;span style=&quot;font-size: 12px;&quot;&gt;id_turma SERIAL&lt;/span&gt;" style="shape=partialRectangle;connectable=0;fillColor=none;top=0;left=0;bottom=0;right=0;align=left;spacingLeft=6;fontStyle=5;overflow=hidden;whiteSpace=wrap;html=1;rounded=1;fontFamily=Helvetica;fontSize=11;fontColor=default;labelBackgroundColor=default;shadow=0;strokeColor=default;verticalAlign=middle;" vertex="1" parent="dywrAjBWSmj7pD-ek3sx-179">
          <mxGeometry x="38" width="142" height="33" as="geometry">
            <mxRectangle width="142" height="33" as="alternateBounds" />
          </mxGeometry>
        </mxCell>
        <mxCell id="dywrAjBWSmj7pD-ek3sx-182" value="" style="shape=tableRow;horizontal=0;startSize=0;swimlaneHead=0;swimlaneBody=0;fillColor=none;collapsible=0;dropTarget=0;points=[[0,0.5],[1,0.5]];portConstraint=eastwest;top=0;left=0;right=0;bottom=0;rounded=1;fontFamily=Helvetica;fontSize=11;fontColor=default;labelBackgroundColor=default;shadow=0;strokeColor=default;align=center;verticalAlign=middle;fontStyle=1;" vertex="1" parent="dywrAjBWSmj7pD-ek3sx-178">
          <mxGeometry y="63" width="180" height="30" as="geometry" />
        </mxCell>
        <mxCell id="dywrAjBWSmj7pD-ek3sx-183" value="" style="shape=partialRectangle;connectable=0;fillColor=none;top=0;left=0;bottom=0;right=0;editable=1;overflow=hidden;whiteSpace=wrap;html=1;rounded=1;fontFamily=Helvetica;fontSize=11;fontColor=default;labelBackgroundColor=default;shadow=0;strokeColor=default;align=center;verticalAlign=middle;fontStyle=1;" vertex="1" parent="dywrAjBWSmj7pD-ek3sx-182">
          <mxGeometry width="38" height="30" as="geometry">
            <mxRectangle width="38" height="30" as="alternateBounds" />
          </mxGeometry>
        </mxCell>
        <mxCell id="dywrAjBWSmj7pD-ek3sx-184" value="&lt;span style=&quot;font-size: 12px; font-weight: normal;&quot;&gt;nome VARCHAR&lt;/span&gt;" style="shape=partialRectangle;connectable=0;fillColor=none;top=0;left=0;bottom=0;right=0;align=left;spacingLeft=6;overflow=hidden;whiteSpace=wrap;html=1;rounded=1;fontFamily=Helvetica;fontSize=11;fontColor=default;labelBackgroundColor=default;shadow=0;strokeColor=default;verticalAlign=middle;fontStyle=1;" vertex="1" parent="dywrAjBWSmj7pD-ek3sx-182">
          <mxGeometry x="38" width="142" height="30" as="geometry">
            <mxRectangle width="142" height="30" as="alternateBounds" />
          </mxGeometry>
        </mxCell>
        <mxCell id="dywrAjBWSmj7pD-ek3sx-188" value="&lt;font color=&quot;#000000&quot;&gt;alunos&lt;/font&gt;" style="shape=table;startSize=30;container=1;collapsible=1;childLayout=tableLayout;fixedRows=1;rowLines=0;fontStyle=1;align=center;resizeLast=1;html=1;rounded=1;fontFamily=Helvetica;fontSize=11;labelBackgroundColor=none;perimeterSpacing=0;shadow=0;swimlaneLine=1;swimlaneFillColor=default;fillColor=#1ba1e2;strokeColor=#006EAF;fontColor=#ffffff;verticalAlign=middle;" vertex="1" parent="1">
          <mxGeometry x="1320" y="439" width="180" height="93" as="geometry" />
        </mxCell>
        <mxCell id="dywrAjBWSmj7pD-ek3sx-189" value="" style="shape=tableRow;horizontal=0;startSize=0;swimlaneHead=0;swimlaneBody=0;fillColor=none;collapsible=0;dropTarget=0;points=[[0,0.5],[1,0.5]];portConstraint=eastwest;top=0;left=0;right=0;bottom=1;rounded=1;fontFamily=Helvetica;fontSize=11;fontColor=default;labelBackgroundColor=default;shadow=0;strokeColor=default;align=center;verticalAlign=middle;fontStyle=1;" vertex="1" parent="dywrAjBWSmj7pD-ek3sx-188">
          <mxGeometry y="30" width="180" height="33" as="geometry" />
        </mxCell>
        <mxCell id="dywrAjBWSmj7pD-ek3sx-190" value="PK, FK" style="shape=partialRectangle;connectable=0;fillColor=none;top=0;left=0;bottom=0;right=0;fontStyle=1;overflow=hidden;whiteSpace=wrap;html=1;rounded=1;fontFamily=Helvetica;fontSize=11;fontColor=default;labelBackgroundColor=default;shadow=0;strokeColor=default;align=center;verticalAlign=middle;" vertex="1" parent="dywrAjBWSmj7pD-ek3sx-189">
          <mxGeometry width="50" height="33" as="geometry">
            <mxRectangle width="50" height="33" as="alternateBounds" />
          </mxGeometry>
        </mxCell>
        <mxCell id="dywrAjBWSmj7pD-ek3sx-191" value="&lt;span style=&quot;font-size: 12px; background-color: rgb(251, 251, 251);&quot;&gt;matricula INT&lt;/span&gt;" style="shape=partialRectangle;connectable=0;fillColor=none;top=0;left=0;bottom=0;right=0;align=left;spacingLeft=6;fontStyle=5;overflow=hidden;whiteSpace=wrap;html=1;rounded=1;fontFamily=Helvetica;fontSize=11;fontColor=default;labelBackgroundColor=default;shadow=0;strokeColor=default;verticalAlign=middle;" vertex="1" parent="dywrAjBWSmj7pD-ek3sx-189">
          <mxGeometry x="50" width="130" height="33" as="geometry">
            <mxRectangle width="130" height="33" as="alternateBounds" />
          </mxGeometry>
        </mxCell>
        <mxCell id="dywrAjBWSmj7pD-ek3sx-198" value="" style="shape=tableRow;horizontal=0;startSize=0;swimlaneHead=0;swimlaneBody=0;fillColor=none;collapsible=0;dropTarget=0;points=[[0,0.5],[1,0.5]];portConstraint=eastwest;top=0;left=0;right=0;bottom=0;rounded=1;fontFamily=Helvetica;fontSize=11;fontColor=default;labelBackgroundColor=default;shadow=0;strokeColor=default;align=center;verticalAlign=middle;fontStyle=1;" vertex="1" parent="dywrAjBWSmj7pD-ek3sx-188">
          <mxGeometry y="63" width="180" height="30" as="geometry" />
        </mxCell>
        <mxCell id="dywrAjBWSmj7pD-ek3sx-199" value="" style="shape=partialRectangle;connectable=0;fillColor=none;top=0;left=0;bottom=0;right=0;editable=1;overflow=hidden;whiteSpace=wrap;html=1;rounded=1;fontFamily=Helvetica;fontSize=11;fontColor=default;labelBackgroundColor=default;shadow=0;strokeColor=default;align=center;verticalAlign=middle;fontStyle=1;" vertex="1" parent="dywrAjBWSmj7pD-ek3sx-198">
          <mxGeometry width="50" height="30" as="geometry">
            <mxRectangle width="50" height="30" as="alternateBounds" />
          </mxGeometry>
        </mxCell>
        <mxCell id="dywrAjBWSmj7pD-ek3sx-200" value="&lt;span style=&quot;font-size: 12px; font-weight: normal;&quot;&gt;mensalidade INT&lt;/span&gt;" style="shape=partialRectangle;connectable=0;fillColor=none;top=0;left=0;bottom=0;right=0;align=left;spacingLeft=6;overflow=hidden;whiteSpace=wrap;html=1;rounded=1;fontFamily=Helvetica;fontSize=11;fontColor=default;labelBackgroundColor=default;shadow=0;strokeColor=default;verticalAlign=middle;fontStyle=1;" vertex="1" parent="dywrAjBWSmj7pD-ek3sx-198">
          <mxGeometry x="50" width="130" height="30" as="geometry">
            <mxRectangle width="130" height="30" as="alternateBounds" />
          </mxGeometry>
        </mxCell>
        <mxCell id="dywrAjBWSmj7pD-ek3sx-248" style="edgeStyle=orthogonalEdgeStyle;rounded=1;orthogonalLoop=1;jettySize=auto;html=1;strokeColor=default;align=center;verticalAlign=middle;fontFamily=Helvetica;fontSize=11;fontColor=default;fontStyle=1;labelBackgroundColor=none;endArrow=none;endFill=0;" edge="1" parent="1" source="dywrAjBWSmj7pD-ek3sx-201" target="dywrAjBWSmj7pD-ek3sx-188">
          <mxGeometry relative="1" as="geometry" />
        </mxCell>
        <mxCell id="dywrAjBWSmj7pD-ek3sx-201" value="&lt;font color=&quot;#000000&quot;&gt;alunos_turmas&lt;/font&gt;" style="shape=table;startSize=30;container=1;collapsible=1;childLayout=tableLayout;fixedRows=1;rowLines=0;fontStyle=1;align=center;resizeLast=1;html=1;rounded=1;fontFamily=Helvetica;fontSize=11;labelBackgroundColor=none;perimeterSpacing=0;shadow=0;swimlaneLine=1;swimlaneFillColor=default;fillColor=#1ba1e2;strokeColor=#006EAF;fontColor=#ffffff;verticalAlign=middle;" vertex="1" parent="1">
          <mxGeometry x="1605" y="424" width="180" height="123" as="geometry" />
        </mxCell>
        <mxCell id="dywrAjBWSmj7pD-ek3sx-202" value="" style="shape=tableRow;horizontal=0;startSize=0;swimlaneHead=0;swimlaneBody=0;fillColor=none;collapsible=0;dropTarget=0;points=[[0,0.5],[1,0.5]];portConstraint=eastwest;top=0;left=0;right=0;bottom=1;rounded=1;fontFamily=Helvetica;fontSize=11;fontColor=default;labelBackgroundColor=default;shadow=0;strokeColor=default;align=center;verticalAlign=middle;fontStyle=1;" vertex="1" parent="dywrAjBWSmj7pD-ek3sx-201">
          <mxGeometry y="30" width="180" height="33" as="geometry" />
        </mxCell>
        <mxCell id="dywrAjBWSmj7pD-ek3sx-203" value="PK" style="shape=partialRectangle;connectable=0;fillColor=none;top=0;left=0;bottom=0;right=0;fontStyle=1;overflow=hidden;whiteSpace=wrap;html=1;rounded=1;fontFamily=Helvetica;fontSize=11;fontColor=default;labelBackgroundColor=default;shadow=0;strokeColor=default;align=center;verticalAlign=middle;" vertex="1" parent="dywrAjBWSmj7pD-ek3sx-202">
          <mxGeometry width="38" height="33" as="geometry">
            <mxRectangle width="38" height="33" as="alternateBounds" />
          </mxGeometry>
        </mxCell>
        <mxCell id="dywrAjBWSmj7pD-ek3sx-204" value="&lt;span style=&quot;font-size: 12px;&quot;&gt;id SERIAL&lt;/span&gt;" style="shape=partialRectangle;connectable=0;fillColor=none;top=0;left=0;bottom=0;right=0;align=left;spacingLeft=6;fontStyle=5;overflow=hidden;whiteSpace=wrap;html=1;rounded=1;fontFamily=Helvetica;fontSize=11;fontColor=default;labelBackgroundColor=default;shadow=0;strokeColor=default;verticalAlign=middle;" vertex="1" parent="dywrAjBWSmj7pD-ek3sx-202">
          <mxGeometry x="38" width="142" height="33" as="geometry">
            <mxRectangle width="142" height="33" as="alternateBounds" />
          </mxGeometry>
        </mxCell>
        <mxCell id="dywrAjBWSmj7pD-ek3sx-205" value="" style="shape=tableRow;horizontal=0;startSize=0;swimlaneHead=0;swimlaneBody=0;fillColor=none;collapsible=0;dropTarget=0;points=[[0,0.5],[1,0.5]];portConstraint=eastwest;top=0;left=0;right=0;bottom=0;rounded=1;fontFamily=Helvetica;fontSize=11;fontColor=default;labelBackgroundColor=default;shadow=0;strokeColor=default;align=center;verticalAlign=middle;fontStyle=0;" vertex="1" parent="dywrAjBWSmj7pD-ek3sx-201">
          <mxGeometry y="63" width="180" height="30" as="geometry" />
        </mxCell>
        <mxCell id="dywrAjBWSmj7pD-ek3sx-206" value="&lt;span style=&quot;font-weight: normal;&quot;&gt;FK&lt;/span&gt;" style="shape=partialRectangle;connectable=0;fillColor=none;top=0;left=0;bottom=0;right=0;editable=1;overflow=hidden;whiteSpace=wrap;html=1;rounded=1;fontFamily=Helvetica;fontSize=11;fontColor=default;labelBackgroundColor=default;shadow=0;strokeColor=default;align=center;verticalAlign=middle;fontStyle=1;" vertex="1" parent="dywrAjBWSmj7pD-ek3sx-205">
          <mxGeometry width="38" height="30" as="geometry">
            <mxRectangle width="38" height="30" as="alternateBounds" />
          </mxGeometry>
        </mxCell>
        <mxCell id="dywrAjBWSmj7pD-ek3sx-207" value="&lt;span style=&quot;font-size: 12px; background-color: rgb(251, 251, 251);&quot;&gt;matricula_aluno INT&lt;/span&gt;" style="shape=partialRectangle;connectable=0;fillColor=none;top=0;left=0;bottom=0;right=0;align=left;spacingLeft=6;overflow=hidden;whiteSpace=wrap;html=1;rounded=1;fontFamily=Helvetica;fontSize=11;fontColor=default;labelBackgroundColor=default;shadow=0;strokeColor=default;verticalAlign=middle;fontStyle=0;" vertex="1" parent="dywrAjBWSmj7pD-ek3sx-205">
          <mxGeometry x="38" width="142" height="30" as="geometry">
            <mxRectangle width="142" height="30" as="alternateBounds" />
          </mxGeometry>
        </mxCell>
        <mxCell id="dywrAjBWSmj7pD-ek3sx-208" value="" style="shape=tableRow;horizontal=0;startSize=0;swimlaneHead=0;swimlaneBody=0;fillColor=none;collapsible=0;dropTarget=0;points=[[0,0.5],[1,0.5]];portConstraint=eastwest;top=0;left=0;right=0;bottom=0;rounded=1;fontFamily=Helvetica;fontSize=11;fontColor=default;labelBackgroundColor=default;shadow=0;strokeColor=default;align=center;verticalAlign=middle;fontStyle=1;" vertex="1" parent="dywrAjBWSmj7pD-ek3sx-201">
          <mxGeometry y="93" width="180" height="30" as="geometry" />
        </mxCell>
        <mxCell id="dywrAjBWSmj7pD-ek3sx-209" value="&lt;span style=&quot;font-weight: normal;&quot;&gt;FK&lt;/span&gt;" style="shape=partialRectangle;connectable=0;fillColor=none;top=0;left=0;bottom=0;right=0;editable=1;overflow=hidden;whiteSpace=wrap;html=1;rounded=1;fontFamily=Helvetica;fontSize=11;fontColor=default;labelBackgroundColor=default;shadow=0;strokeColor=default;align=center;verticalAlign=middle;fontStyle=1;" vertex="1" parent="dywrAjBWSmj7pD-ek3sx-208">
          <mxGeometry width="38" height="30" as="geometry">
            <mxRectangle width="38" height="30" as="alternateBounds" />
          </mxGeometry>
        </mxCell>
        <mxCell id="dywrAjBWSmj7pD-ek3sx-210" value="&lt;span style=&quot;font-size: 12px; font-weight: normal;&quot;&gt;id_turma SERIAL&lt;/span&gt;" style="shape=partialRectangle;connectable=0;fillColor=none;top=0;left=0;bottom=0;right=0;align=left;spacingLeft=6;overflow=hidden;whiteSpace=wrap;html=1;rounded=1;fontFamily=Helvetica;fontSize=11;fontColor=default;labelBackgroundColor=default;shadow=0;strokeColor=default;verticalAlign=middle;fontStyle=1;" vertex="1" parent="dywrAjBWSmj7pD-ek3sx-208">
          <mxGeometry x="38" width="142" height="30" as="geometry">
            <mxRectangle width="142" height="30" as="alternateBounds" />
          </mxGeometry>
        </mxCell>
        <mxCell id="dywrAjBWSmj7pD-ek3sx-246" style="edgeStyle=orthogonalEdgeStyle;rounded=1;orthogonalLoop=1;jettySize=auto;html=1;strokeColor=default;align=center;verticalAlign=middle;fontFamily=Helvetica;fontSize=11;fontColor=default;fontStyle=1;labelBackgroundColor=none;endArrow=none;endFill=0;" edge="1" parent="1" source="dywrAjBWSmj7pD-ek3sx-214" target="dywrAjBWSmj7pD-ek3sx-235">
          <mxGeometry relative="1" as="geometry" />
        </mxCell>
        <mxCell id="dywrAjBWSmj7pD-ek3sx-214" value="&lt;font color=&quot;#000000&quot;&gt;disciplinas&lt;/font&gt;" style="shape=table;startSize=30;container=1;collapsible=1;childLayout=tableLayout;fixedRows=1;rowLines=0;fontStyle=1;align=center;resizeLast=1;html=1;rounded=1;fontFamily=Helvetica;fontSize=11;labelBackgroundColor=none;perimeterSpacing=0;shadow=0;swimlaneLine=1;swimlaneFillColor=default;fillColor=#1ba1e2;strokeColor=#006EAF;fontColor=#ffffff;verticalAlign=middle;" vertex="1" parent="1">
          <mxGeometry x="1330" y="829" width="180" height="123" as="geometry" />
        </mxCell>
        <mxCell id="dywrAjBWSmj7pD-ek3sx-215" value="" style="shape=tableRow;horizontal=0;startSize=0;swimlaneHead=0;swimlaneBody=0;fillColor=none;collapsible=0;dropTarget=0;points=[[0,0.5],[1,0.5]];portConstraint=eastwest;top=0;left=0;right=0;bottom=1;rounded=1;fontFamily=Helvetica;fontSize=11;fontColor=default;labelBackgroundColor=default;shadow=0;strokeColor=default;align=center;verticalAlign=middle;fontStyle=1;" vertex="1" parent="dywrAjBWSmj7pD-ek3sx-214">
          <mxGeometry y="30" width="180" height="33" as="geometry" />
        </mxCell>
        <mxCell id="dywrAjBWSmj7pD-ek3sx-216" value="PK" style="shape=partialRectangle;connectable=0;fillColor=none;top=0;left=0;bottom=0;right=0;fontStyle=1;overflow=hidden;whiteSpace=wrap;html=1;rounded=1;fontFamily=Helvetica;fontSize=11;fontColor=default;labelBackgroundColor=default;shadow=0;strokeColor=default;align=center;verticalAlign=middle;" vertex="1" parent="dywrAjBWSmj7pD-ek3sx-215">
          <mxGeometry width="38" height="33" as="geometry">
            <mxRectangle width="38" height="33" as="alternateBounds" />
          </mxGeometry>
        </mxCell>
        <mxCell id="dywrAjBWSmj7pD-ek3sx-217" value="&lt;span style=&quot;font-size: 12px;&quot;&gt;id_disciplina SERIAL&lt;/span&gt;" style="shape=partialRectangle;connectable=0;fillColor=none;top=0;left=0;bottom=0;right=0;align=left;spacingLeft=6;fontStyle=5;overflow=hidden;whiteSpace=wrap;html=1;rounded=1;fontFamily=Helvetica;fontSize=11;fontColor=default;labelBackgroundColor=default;shadow=0;strokeColor=default;verticalAlign=middle;" vertex="1" parent="dywrAjBWSmj7pD-ek3sx-215">
          <mxGeometry x="38" width="142" height="33" as="geometry">
            <mxRectangle width="142" height="33" as="alternateBounds" />
          </mxGeometry>
        </mxCell>
        <mxCell id="dywrAjBWSmj7pD-ek3sx-218" value="" style="shape=tableRow;horizontal=0;startSize=0;swimlaneHead=0;swimlaneBody=0;fillColor=none;collapsible=0;dropTarget=0;points=[[0,0.5],[1,0.5]];portConstraint=eastwest;top=0;left=0;right=0;bottom=0;rounded=1;fontFamily=Helvetica;fontSize=11;fontColor=default;labelBackgroundColor=default;shadow=0;strokeColor=default;align=center;verticalAlign=middle;fontStyle=1;" vertex="1" parent="dywrAjBWSmj7pD-ek3sx-214">
          <mxGeometry y="63" width="180" height="30" as="geometry" />
        </mxCell>
        <mxCell id="dywrAjBWSmj7pD-ek3sx-219" value="" style="shape=partialRectangle;connectable=0;fillColor=none;top=0;left=0;bottom=0;right=0;editable=1;overflow=hidden;whiteSpace=wrap;html=1;rounded=1;fontFamily=Helvetica;fontSize=11;fontColor=default;labelBackgroundColor=default;shadow=0;strokeColor=default;align=center;verticalAlign=middle;fontStyle=1;" vertex="1" parent="dywrAjBWSmj7pD-ek3sx-218">
          <mxGeometry width="38" height="30" as="geometry">
            <mxRectangle width="38" height="30" as="alternateBounds" />
          </mxGeometry>
        </mxCell>
        <mxCell id="dywrAjBWSmj7pD-ek3sx-220" value="&lt;span style=&quot;font-size: 12px; font-weight: 400; background-color: rgb(251, 251, 251);&quot;&gt;codcred INT&lt;/span&gt;" style="shape=partialRectangle;connectable=0;fillColor=none;top=0;left=0;bottom=0;right=0;align=left;spacingLeft=6;overflow=hidden;whiteSpace=wrap;html=1;rounded=1;fontFamily=Helvetica;fontSize=11;fontColor=default;labelBackgroundColor=default;shadow=0;strokeColor=default;verticalAlign=middle;fontStyle=1;" vertex="1" parent="dywrAjBWSmj7pD-ek3sx-218">
          <mxGeometry x="38" width="142" height="30" as="geometry">
            <mxRectangle width="142" height="30" as="alternateBounds" />
          </mxGeometry>
        </mxCell>
        <mxCell id="dywrAjBWSmj7pD-ek3sx-221" value="" style="shape=tableRow;horizontal=0;startSize=0;swimlaneHead=0;swimlaneBody=0;fillColor=none;collapsible=0;dropTarget=0;points=[[0,0.5],[1,0.5]];portConstraint=eastwest;top=0;left=0;right=0;bottom=0;rounded=1;fontFamily=Helvetica;fontSize=11;fontColor=default;labelBackgroundColor=default;shadow=0;strokeColor=default;align=center;verticalAlign=middle;fontStyle=1;" vertex="1" parent="dywrAjBWSmj7pD-ek3sx-214">
          <mxGeometry y="93" width="180" height="30" as="geometry" />
        </mxCell>
        <mxCell id="dywrAjBWSmj7pD-ek3sx-222" value="" style="shape=partialRectangle;connectable=0;fillColor=none;top=0;left=0;bottom=0;right=0;editable=1;overflow=hidden;whiteSpace=wrap;html=1;rounded=1;fontFamily=Helvetica;fontSize=11;fontColor=default;labelBackgroundColor=default;shadow=0;strokeColor=default;align=center;verticalAlign=middle;fontStyle=1;" vertex="1" parent="dywrAjBWSmj7pD-ek3sx-221">
          <mxGeometry width="38" height="30" as="geometry">
            <mxRectangle width="38" height="30" as="alternateBounds" />
          </mxGeometry>
        </mxCell>
        <mxCell id="dywrAjBWSmj7pD-ek3sx-223" value="&lt;span style=&quot;font-size: 12px; font-weight: 400; background-color: rgb(251, 251, 251);&quot;&gt;horario TIME&lt;/span&gt;" style="shape=partialRectangle;connectable=0;fillColor=none;top=0;left=0;bottom=0;right=0;align=left;spacingLeft=6;overflow=hidden;whiteSpace=wrap;html=1;rounded=1;fontFamily=Helvetica;fontSize=11;fontColor=default;labelBackgroundColor=default;shadow=0;strokeColor=default;verticalAlign=middle;fontStyle=1;" vertex="1" parent="dywrAjBWSmj7pD-ek3sx-221">
          <mxGeometry x="38" width="142" height="30" as="geometry">
            <mxRectangle width="142" height="30" as="alternateBounds" />
          </mxGeometry>
        </mxCell>
        <mxCell id="dywrAjBWSmj7pD-ek3sx-235" value="&lt;font color=&quot;#000000&quot;&gt;turmas_disciplinas&lt;/font&gt;" style="shape=table;startSize=30;container=1;collapsible=1;childLayout=tableLayout;fixedRows=1;rowLines=0;fontStyle=1;align=center;resizeLast=1;html=1;rounded=1;fontFamily=Helvetica;fontSize=11;labelBackgroundColor=none;perimeterSpacing=0;shadow=0;swimlaneLine=1;swimlaneFillColor=default;fillColor=#1ba1e2;strokeColor=#006EAF;fontColor=#ffffff;verticalAlign=middle;" vertex="1" parent="1">
          <mxGeometry x="1580" y="829" width="230" height="123" as="geometry" />
        </mxCell>
        <mxCell id="dywrAjBWSmj7pD-ek3sx-236" value="" style="shape=tableRow;horizontal=0;startSize=0;swimlaneHead=0;swimlaneBody=0;fillColor=none;collapsible=0;dropTarget=0;points=[[0,0.5],[1,0.5]];portConstraint=eastwest;top=0;left=0;right=0;bottom=1;rounded=1;fontFamily=Helvetica;fontSize=11;fontColor=default;labelBackgroundColor=default;shadow=0;strokeColor=default;align=center;verticalAlign=middle;fontStyle=1;" vertex="1" parent="dywrAjBWSmj7pD-ek3sx-235">
          <mxGeometry y="30" width="230" height="33" as="geometry" />
        </mxCell>
        <mxCell id="dywrAjBWSmj7pD-ek3sx-237" value="PK" style="shape=partialRectangle;connectable=0;fillColor=none;top=0;left=0;bottom=0;right=0;fontStyle=1;overflow=hidden;whiteSpace=wrap;html=1;rounded=1;fontFamily=Helvetica;fontSize=11;fontColor=default;labelBackgroundColor=default;shadow=0;strokeColor=default;align=center;verticalAlign=middle;" vertex="1" parent="dywrAjBWSmj7pD-ek3sx-236">
          <mxGeometry width="38" height="33" as="geometry">
            <mxRectangle width="38" height="33" as="alternateBounds" />
          </mxGeometry>
        </mxCell>
        <mxCell id="dywrAjBWSmj7pD-ek3sx-238" value="&lt;span style=&quot;font-size: 12px;&quot;&gt;id_turma_disciplina SERIAL&lt;/span&gt;" style="shape=partialRectangle;connectable=0;fillColor=none;top=0;left=0;bottom=0;right=0;align=left;spacingLeft=6;fontStyle=5;overflow=hidden;whiteSpace=wrap;html=1;rounded=1;fontFamily=Helvetica;fontSize=11;fontColor=default;labelBackgroundColor=default;shadow=0;strokeColor=default;verticalAlign=middle;" vertex="1" parent="dywrAjBWSmj7pD-ek3sx-236">
          <mxGeometry x="38" width="192" height="33" as="geometry">
            <mxRectangle width="192" height="33" as="alternateBounds" />
          </mxGeometry>
        </mxCell>
        <mxCell id="dywrAjBWSmj7pD-ek3sx-239" value="" style="shape=tableRow;horizontal=0;startSize=0;swimlaneHead=0;swimlaneBody=0;fillColor=none;collapsible=0;dropTarget=0;points=[[0,0.5],[1,0.5]];portConstraint=eastwest;top=0;left=0;right=0;bottom=0;rounded=1;fontFamily=Helvetica;fontSize=11;fontColor=default;labelBackgroundColor=default;shadow=0;strokeColor=default;align=center;verticalAlign=middle;fontStyle=1;" vertex="1" parent="dywrAjBWSmj7pD-ek3sx-235">
          <mxGeometry y="63" width="230" height="30" as="geometry" />
        </mxCell>
        <mxCell id="dywrAjBWSmj7pD-ek3sx-240" value="&lt;span style=&quot;font-weight: normal;&quot;&gt;FK&lt;/span&gt;" style="shape=partialRectangle;connectable=0;fillColor=none;top=0;left=0;bottom=0;right=0;editable=1;overflow=hidden;whiteSpace=wrap;html=1;rounded=1;fontFamily=Helvetica;fontSize=11;fontColor=default;labelBackgroundColor=default;shadow=0;strokeColor=default;align=center;verticalAlign=middle;fontStyle=1;" vertex="1" parent="dywrAjBWSmj7pD-ek3sx-239">
          <mxGeometry width="38" height="30" as="geometry">
            <mxRectangle width="38" height="30" as="alternateBounds" />
          </mxGeometry>
        </mxCell>
        <mxCell id="dywrAjBWSmj7pD-ek3sx-241" value="&lt;span style=&quot;font-size: 12px; font-weight: normal;&quot;&gt;id_disciplina SERIAL&lt;/span&gt;" style="shape=partialRectangle;connectable=0;fillColor=none;top=0;left=0;bottom=0;right=0;align=left;spacingLeft=6;overflow=hidden;whiteSpace=wrap;html=1;rounded=1;fontFamily=Helvetica;fontSize=11;fontColor=default;labelBackgroundColor=default;shadow=0;strokeColor=default;verticalAlign=middle;fontStyle=1;" vertex="1" parent="dywrAjBWSmj7pD-ek3sx-239">
          <mxGeometry x="38" width="192" height="30" as="geometry">
            <mxRectangle width="192" height="30" as="alternateBounds" />
          </mxGeometry>
        </mxCell>
        <mxCell id="dywrAjBWSmj7pD-ek3sx-242" value="" style="shape=tableRow;horizontal=0;startSize=0;swimlaneHead=0;swimlaneBody=0;fillColor=none;collapsible=0;dropTarget=0;points=[[0,0.5],[1,0.5]];portConstraint=eastwest;top=0;left=0;right=0;bottom=0;rounded=1;fontFamily=Helvetica;fontSize=11;fontColor=default;labelBackgroundColor=default;shadow=0;strokeColor=default;align=center;verticalAlign=middle;fontStyle=1;" vertex="1" parent="dywrAjBWSmj7pD-ek3sx-235">
          <mxGeometry y="93" width="230" height="30" as="geometry" />
        </mxCell>
        <mxCell id="dywrAjBWSmj7pD-ek3sx-243" value="&lt;span style=&quot;font-weight: normal;&quot;&gt;FK&lt;/span&gt;" style="shape=partialRectangle;connectable=0;fillColor=none;top=0;left=0;bottom=0;right=0;editable=1;overflow=hidden;whiteSpace=wrap;html=1;rounded=1;fontFamily=Helvetica;fontSize=11;fontColor=default;labelBackgroundColor=default;shadow=0;strokeColor=default;align=center;verticalAlign=middle;fontStyle=1;" vertex="1" parent="dywrAjBWSmj7pD-ek3sx-242">
          <mxGeometry width="38" height="30" as="geometry">
            <mxRectangle width="38" height="30" as="alternateBounds" />
          </mxGeometry>
        </mxCell>
        <mxCell id="dywrAjBWSmj7pD-ek3sx-244" value="&lt;span style=&quot;font-size: 12px; font-weight: normal;&quot;&gt;id_turma SERIAL&lt;/span&gt;" style="shape=partialRectangle;connectable=0;fillColor=none;top=0;left=0;bottom=0;right=0;align=left;spacingLeft=6;overflow=hidden;whiteSpace=wrap;html=1;rounded=1;fontFamily=Helvetica;fontSize=11;fontColor=default;labelBackgroundColor=default;shadow=0;strokeColor=default;verticalAlign=middle;fontStyle=1;" vertex="1" parent="dywrAjBWSmj7pD-ek3sx-242">
          <mxGeometry x="38" width="192" height="30" as="geometry">
            <mxRectangle width="192" height="30" as="alternateBounds" />
          </mxGeometry>
        </mxCell>
        <mxCell id="dywrAjBWSmj7pD-ek3sx-271" style="edgeStyle=orthogonalEdgeStyle;rounded=1;orthogonalLoop=1;jettySize=auto;html=1;strokeColor=default;align=center;verticalAlign=middle;fontFamily=Helvetica;fontSize=11;fontColor=default;fontStyle=1;labelBackgroundColor=none;endArrow=none;endFill=0;" edge="1" parent="1" source="dywrAjBWSmj7pD-ek3sx-252" target="dywrAjBWSmj7pD-ek3sx-188">
          <mxGeometry relative="1" as="geometry">
            <Array as="points">
              <mxPoint x="1240" y="486" />
            </Array>
          </mxGeometry>
        </mxCell>
        <mxCell id="dywrAjBWSmj7pD-ek3sx-272" style="edgeStyle=orthogonalEdgeStyle;rounded=1;orthogonalLoop=1;jettySize=auto;html=1;strokeColor=default;align=center;verticalAlign=middle;fontFamily=Helvetica;fontSize=11;fontColor=default;fontStyle=1;labelBackgroundColor=none;endArrow=none;endFill=0;" edge="1" parent="1" source="dywrAjBWSmj7pD-ek3sx-252" target="dywrAjBWSmj7pD-ek3sx-118">
          <mxGeometry relative="1" as="geometry">
            <Array as="points">
              <mxPoint x="1050" y="320" />
            </Array>
          </mxGeometry>
        </mxCell>
        <mxCell id="dywrAjBWSmj7pD-ek3sx-252" value="&lt;font color=&quot;#000000&quot;&gt;pessoas&lt;/font&gt;" style="shape=table;startSize=30;container=1;collapsible=1;childLayout=tableLayout;fixedRows=1;rowLines=0;fontStyle=1;align=center;resizeLast=1;html=1;rounded=1;fontFamily=Helvetica;fontSize=11;labelBackgroundColor=none;perimeterSpacing=0;shadow=0;swimlaneLine=1;swimlaneFillColor=default;fillColor=#1ba1e2;strokeColor=#006EAF;fontColor=#ffffff;verticalAlign=middle;" vertex="1" parent="1">
          <mxGeometry x="1140" y="260" width="180" height="123" as="geometry" />
        </mxCell>
        <mxCell id="dywrAjBWSmj7pD-ek3sx-253" value="" style="shape=tableRow;horizontal=0;startSize=0;swimlaneHead=0;swimlaneBody=0;fillColor=none;collapsible=0;dropTarget=0;points=[[0,0.5],[1,0.5]];portConstraint=eastwest;top=0;left=0;right=0;bottom=1;rounded=1;fontFamily=Helvetica;fontSize=11;fontColor=default;labelBackgroundColor=default;shadow=0;strokeColor=default;align=center;verticalAlign=middle;fontStyle=1;" vertex="1" parent="dywrAjBWSmj7pD-ek3sx-252">
          <mxGeometry y="30" width="180" height="33" as="geometry" />
        </mxCell>
        <mxCell id="dywrAjBWSmj7pD-ek3sx-254" value="PK" style="shape=partialRectangle;connectable=0;fillColor=none;top=0;left=0;bottom=0;right=0;fontStyle=1;overflow=hidden;whiteSpace=wrap;html=1;rounded=1;fontFamily=Helvetica;fontSize=11;fontColor=default;labelBackgroundColor=default;shadow=0;strokeColor=default;align=center;verticalAlign=middle;" vertex="1" parent="dywrAjBWSmj7pD-ek3sx-253">
          <mxGeometry width="38" height="33" as="geometry">
            <mxRectangle width="38" height="33" as="alternateBounds" />
          </mxGeometry>
        </mxCell>
        <mxCell id="dywrAjBWSmj7pD-ek3sx-255" value="&lt;span style=&quot;font-size: 12px; background-color: rgb(251, 251, 251);&quot;&gt;matricula INT&lt;/span&gt;" style="shape=partialRectangle;connectable=0;fillColor=none;top=0;left=0;bottom=0;right=0;align=left;spacingLeft=6;fontStyle=5;overflow=hidden;whiteSpace=wrap;html=1;rounded=1;fontFamily=Helvetica;fontSize=11;fontColor=default;labelBackgroundColor=default;shadow=0;strokeColor=default;verticalAlign=middle;" vertex="1" parent="dywrAjBWSmj7pD-ek3sx-253">
          <mxGeometry x="38" width="142" height="33" as="geometry">
            <mxRectangle width="142" height="33" as="alternateBounds" />
          </mxGeometry>
        </mxCell>
        <mxCell id="dywrAjBWSmj7pD-ek3sx-256" value="" style="shape=tableRow;horizontal=0;startSize=0;swimlaneHead=0;swimlaneBody=0;fillColor=none;collapsible=0;dropTarget=0;points=[[0,0.5],[1,0.5]];portConstraint=eastwest;top=0;left=0;right=0;bottom=0;rounded=1;fontFamily=Helvetica;fontSize=11;fontColor=default;labelBackgroundColor=default;shadow=0;strokeColor=default;align=center;verticalAlign=middle;fontStyle=1;" vertex="1" parent="dywrAjBWSmj7pD-ek3sx-252">
          <mxGeometry y="63" width="180" height="30" as="geometry" />
        </mxCell>
        <mxCell id="dywrAjBWSmj7pD-ek3sx-257" value="" style="shape=partialRectangle;connectable=0;fillColor=none;top=0;left=0;bottom=0;right=0;editable=1;overflow=hidden;whiteSpace=wrap;html=1;rounded=1;fontFamily=Helvetica;fontSize=11;fontColor=default;labelBackgroundColor=default;shadow=0;strokeColor=default;align=center;verticalAlign=middle;fontStyle=1;" vertex="1" parent="dywrAjBWSmj7pD-ek3sx-256">
          <mxGeometry width="38" height="30" as="geometry">
            <mxRectangle width="38" height="30" as="alternateBounds" />
          </mxGeometry>
        </mxCell>
        <mxCell id="dywrAjBWSmj7pD-ek3sx-258" value="&lt;span style=&quot;font-size: 12px; font-weight: 400;&quot;&gt;nome VARCHAR&lt;/span&gt;" style="shape=partialRectangle;connectable=0;fillColor=none;top=0;left=0;bottom=0;right=0;align=left;spacingLeft=6;overflow=hidden;whiteSpace=wrap;html=1;rounded=1;fontFamily=Helvetica;fontSize=11;fontColor=default;labelBackgroundColor=default;shadow=0;strokeColor=default;verticalAlign=middle;fontStyle=1;" vertex="1" parent="dywrAjBWSmj7pD-ek3sx-256">
          <mxGeometry x="38" width="142" height="30" as="geometry">
            <mxRectangle width="142" height="30" as="alternateBounds" />
          </mxGeometry>
        </mxCell>
        <mxCell id="dywrAjBWSmj7pD-ek3sx-265" value="" style="shape=tableRow;horizontal=0;startSize=0;swimlaneHead=0;swimlaneBody=0;fillColor=none;collapsible=0;dropTarget=0;points=[[0,0.5],[1,0.5]];portConstraint=eastwest;top=0;left=0;right=0;bottom=0;rounded=1;fontFamily=Helvetica;fontSize=11;fontColor=default;labelBackgroundColor=default;shadow=0;strokeColor=default;align=center;verticalAlign=middle;fontStyle=1;" vertex="1" parent="dywrAjBWSmj7pD-ek3sx-252">
          <mxGeometry y="93" width="180" height="30" as="geometry" />
        </mxCell>
        <mxCell id="dywrAjBWSmj7pD-ek3sx-266" value="" style="shape=partialRectangle;connectable=0;fillColor=none;top=0;left=0;bottom=0;right=0;editable=1;overflow=hidden;whiteSpace=wrap;html=1;rounded=1;fontFamily=Helvetica;fontSize=11;fontColor=default;labelBackgroundColor=default;shadow=0;strokeColor=default;align=center;verticalAlign=middle;fontStyle=1;" vertex="1" parent="dywrAjBWSmj7pD-ek3sx-265">
          <mxGeometry width="38" height="30" as="geometry">
            <mxRectangle width="38" height="30" as="alternateBounds" />
          </mxGeometry>
        </mxCell>
        <mxCell id="dywrAjBWSmj7pD-ek3sx-267" value="&lt;span style=&quot;font-size: 12px; font-weight: 400; background-color: rgb(251, 251, 251);&quot;&gt;email VARCHAR&lt;/span&gt;" style="shape=partialRectangle;connectable=0;fillColor=none;top=0;left=0;bottom=0;right=0;align=left;spacingLeft=6;overflow=hidden;whiteSpace=wrap;html=1;rounded=1;fontFamily=Helvetica;fontSize=11;fontColor=default;labelBackgroundColor=default;shadow=0;strokeColor=default;verticalAlign=middle;fontStyle=1;" vertex="1" parent="dywrAjBWSmj7pD-ek3sx-265">
          <mxGeometry x="38" width="142" height="30" as="geometry">
            <mxRectangle width="142" height="30" as="alternateBounds" />
          </mxGeometry>
        </mxCell>
        <mxCell id="dywrAjBWSmj7pD-ek3sx-276" value="" style="shape=tableRow;horizontal=0;startSize=0;swimlaneHead=0;swimlaneBody=0;fillColor=none;collapsible=0;dropTarget=0;points=[[0,0.5],[1,0.5]];portConstraint=eastwest;top=0;left=0;right=0;bottom=0;rounded=1;fontFamily=Helvetica;fontSize=11;fontColor=default;labelBackgroundColor=default;" vertex="1" parent="1">
          <mxGeometry x="880" y="530" width="210" height="30" as="geometry" />
        </mxCell>
      </root>
    </mxGraphModel>
  </diagram>
</mxfile>
